<?xml version="1.0" encoding="UTF-8" standalone="no"?>
<!DOCTYPE svg PUBLIC "-//W3C//DTD SVG 1.1//EN"
 "http://www.w3.org/Graphics/SVG/1.1/DTD/svg11.dtd">
<!-- Generated by graphviz version 2.50.0 (0)
 -->
<!-- Pages: 1 -->
<svg width="368pt" height="92pt"
 viewBox="0.00 0.00 368.00 91.70" xmlns="http://www.w3.org/2000/svg" xmlns:xlink="http://www.w3.org/1999/xlink">
<g id="graph0" class="graph" transform="scale(1 1) rotate(0) translate(4 87.7)">
<polygon fill="white" stroke="transparent" points="-4,4 -4,-87.7 364,-87.7 364,4 -4,4"/>
<!-- &#45;1 -->
<g id="node1" class="node">
<title>&#45;1</title>
<polygon fill="lightgray" stroke="black" points="150,-83.7 126,-83.7 126,-65.7 150,-65.7 150,-83.7"/>
<text text-anchor="middle" x="138" y="-72.5" font-family="Times New Roman,serif" font-size="9.00">&#45;1</text>
</g>
<!-- 0 -->
<g id="node10" class="node">
<title>0</title>
<ellipse fill="lightblue" stroke="black" cx="204" cy="-14.85" rx="14.7" ry="14.7"/>
<text text-anchor="middle" x="204" y="-12.65" font-family="Times New Roman,serif" font-size="9.00">0</text>
</g>
<!-- &#45;1&#45;&gt;0 -->
<g id="edge1" class="edge">
<title>&#45;1&#45;&gt;0</title>
<path fill="none" stroke="green" stroke-width="0.48" d="M147.18,-65.65C157.06,-57 173.03,-42.99 185.53,-32.03"/>
<polygon fill="green" stroke="green" stroke-width="0.48" points="187.93,-34.58 193.15,-25.36 183.32,-29.32 187.93,-34.58"/>
</g>
<!-- 1 -->
<g id="node11" class="node">
<title>1</title>
<ellipse fill="lightblue" stroke="black" cx="252" cy="-14.85" rx="14.7" ry="14.7"/>
<text text-anchor="middle" x="252" y="-12.65" font-family="Times New Roman,serif" font-size="9.00">1</text>
</g>
<!-- &#45;1&#45;&gt;1 -->
<g id="edge2" class="edge">
<title>&#45;1&#45;&gt;1</title>
<path fill="none" stroke="green" stroke-width="0.31" d="M150.07,-68.12C167.47,-60.01 200.52,-44.32 228,-29.7 228.82,-29.26 229.65,-28.82 230.48,-28.36"/>
<polygon fill="green" stroke="green" stroke-width="0.31" points="232.39,-31.3 239.39,-23.34 228.96,-25.2 232.39,-31.3"/>
</g>
<!-- 2 -->
<g id="node12" class="node">
<title>2</title>
<ellipse fill="lightblue" stroke="black" cx="108" cy="-14.85" rx="14.7" ry="14.7"/>
<text text-anchor="middle" x="108" y="-12.65" font-family="Times New Roman,serif" font-size="9.00">2</text>
</g>
<!-- &#45;1&#45;&gt;2 -->
<g id="edge3" class="edge">
<title>&#45;1&#45;&gt;2</title>
<path fill="none" stroke="red" stroke-width="0.11" d="M133.83,-65.65C130.02,-58.31 124.22,-47.13 119.08,-37.22"/>
<polygon fill="red" stroke="red" stroke-width="0.11" points="122.16,-35.54 114.44,-28.28 115.94,-38.77 122.16,-35.54"/>
</g>
<!-- 3 -->
<g id="node13" class="node">
<title>3</title>
<ellipse fill="lightblue" stroke="black" cx="156" cy="-14.85" rx="14.7" ry="14.7"/>
<text text-anchor="middle" x="156" y="-12.65" font-family="Times New Roman,serif" font-size="9.00">3</text>
</g>
<!-- &#45;1&#45;&gt;3 -->
<g id="edge4" class="edge">
<title>&#45;1&#45;&gt;3</title>
<path fill="none" stroke="green" stroke-width="0.16" d="M140.5,-65.65C142.66,-58.72 145.88,-48.37 148.83,-38.89"/>
<polygon fill="green" stroke="green" stroke-width="0.16" points="152.23,-39.75 151.86,-29.16 145.55,-37.67 152.23,-39.75"/>
</g>
<!-- &#45;2 -->
<g id="node2" class="node">
<title>&#45;2</title>
<polygon fill="lightgray" stroke="black" points="192,-83.7 168,-83.7 168,-65.7 192,-65.7 192,-83.7"/>
<text text-anchor="middle" x="180" y="-72.5" font-family="Times New Roman,serif" font-size="9.00">&#45;2</text>
</g>
<!-- &#45;2&#45;&gt;0 -->
<g id="edge5" class="edge">
<title>&#45;2&#45;&gt;0</title>
<path fill="none" stroke="red" stroke-width="0.36" d="M183.34,-65.65C186.28,-58.56 190.72,-47.87 194.72,-38.21"/>
<polygon fill="red" stroke="red" stroke-width="0.36" points="198.06,-39.29 198.66,-28.71 191.6,-36.61 198.06,-39.29"/>
</g>
<!-- &#45;2&#45;&gt;1 -->
<g id="edge6" class="edge">
<title>&#45;2&#45;&gt;1</title>
<path fill="none" stroke="green" stroke-width="0.25" d="M190.01,-65.65C201.02,-56.81 218.97,-42.39 232.73,-31.34"/>
<polygon fill="green" stroke="green" stroke-width="0.25" points="235.05,-33.96 240.65,-24.97 230.66,-28.5 235.05,-33.96"/>
</g>
<!-- &#45;2&#45;&gt;2 -->
<g id="edge7" class="edge">
<title>&#45;2&#45;&gt;2</title>
<path fill="none" stroke="green" stroke-width="0.55" d="M169.99,-65.65C158.98,-56.81 141.03,-42.39 127.27,-31.34"/>
<polygon fill="green" stroke="green" stroke-width="0.55" points="129.34,-28.5 119.35,-24.97 124.95,-33.96 129.34,-28.5"/>
</g>
<!-- &#45;2&#45;&gt;3 -->
<g id="edge8" class="edge">
<title>&#45;2&#45;&gt;3</title>
<path fill="none" stroke="red" stroke-width="0.19" d="M176.66,-65.65C173.72,-58.56 169.28,-47.87 165.28,-38.21"/>
<polygon fill="red" stroke="red" stroke-width="0.19" points="168.4,-36.61 161.34,-28.71 161.94,-39.29 168.4,-36.61"/>
</g>
<!-- &#45;3 -->
<g id="node3" class="node">
<title>&#45;3</title>
<polygon fill="lightgray" stroke="black" points="234,-83.7 210,-83.7 210,-65.7 234,-65.7 234,-83.7"/>
<text text-anchor="middle" x="222" y="-72.5" font-family="Times New Roman,serif" font-size="9.00">&#45;3</text>
</g>
<!-- &#45;3&#45;&gt;0 -->
<g id="edge9" class="edge">
<title>&#45;3&#45;&gt;0</title>
<path fill="none" stroke="green" stroke-width="0.14" d="M219.5,-65.65C217.34,-58.72 214.12,-48.37 211.17,-38.89"/>
<polygon fill="green" stroke="green" stroke-width="0.14" points="214.45,-37.67 208.14,-29.16 207.77,-39.75 214.45,-37.67"/>
</g>
<!-- &#45;3&#45;&gt;1 -->
<g id="edge10" class="edge">
<title>&#45;3&#45;&gt;1</title>
<path fill="none" stroke="green" stroke-width="0.12" d="M226.17,-65.65C229.98,-58.31 235.78,-47.13 240.92,-37.22"/>
<polygon fill="green" stroke="green" stroke-width="0.12" points="244.06,-38.77 245.56,-28.28 237.84,-35.54 244.06,-38.77"/>
</g>
<!-- &#45;3&#45;&gt;2 -->
<g id="edge11" class="edge">
<title>&#45;3&#45;&gt;2</title>
<path fill="none" stroke="red" stroke-width="0.26" d="M209.93,-68.12C192.53,-60.01 159.48,-44.32 132,-29.7 131.18,-29.26 130.35,-28.82 129.52,-28.36"/>
<polygon fill="red" stroke="red" stroke-width="0.26" points="131.04,-25.2 120.61,-23.34 127.61,-31.3 131.04,-25.2"/>
</g>
<!-- &#45;3&#45;&gt;3 -->
<g id="edge12" class="edge">
<title>&#45;3&#45;&gt;3</title>
<path fill="none" stroke="red" stroke-width="0.4" d="M212.82,-65.65C202.94,-57 186.97,-42.99 174.47,-32.03"/>
<polygon fill="red" stroke="red" stroke-width="0.4" points="176.68,-29.32 166.85,-25.36 172.07,-34.58 176.68,-29.32"/>
</g>
<!-- &#45;4 -->
<g id="node4" class="node">
<title>&#45;4</title>
<polygon fill="lightgray" stroke="black" points="276,-83.7 252,-83.7 252,-65.7 276,-65.7 276,-83.7"/>
<text text-anchor="middle" x="264" y="-72.5" font-family="Times New Roman,serif" font-size="9.00">&#45;4</text>
</g>
<!-- &#45;4&#45;&gt;0 -->
<g id="edge13" class="edge">
<title>&#45;4&#45;&gt;0</title>
<path fill="none" stroke="red" stroke-width="0.13" d="M255.66,-65.65C246.87,-57.18 232.76,-43.58 221.51,-32.73"/>
<polygon fill="red" stroke="red" stroke-width="0.13" points="223.91,-30.18 214.28,-25.76 219.05,-35.22 223.91,-30.18"/>
</g>
<!-- &#45;4&#45;&gt;1 -->
<g id="edge14" class="edge">
<title>&#45;4&#45;&gt;1</title>
<path fill="none" stroke="red" stroke-width="0.25" d="M262.33,-65.65C260.93,-58.89 258.85,-48.86 256.92,-39.57"/>
<polygon fill="red" stroke="red" stroke-width="0.25" points="260.31,-38.69 254.85,-29.6 253.46,-40.11 260.31,-38.69"/>
</g>
<!-- &#45;4&#45;&gt;2 -->
<g id="edge15" class="edge">
<title>&#45;4&#45;&gt;2</title>
<path fill="none" stroke="green" stroke-width="0.62" d="M251.6,-68.86C248.78,-67.79 245.8,-66.68 243,-65.7 194.09,-48.46 179.39,-50.78 132,-29.7 131.15,-29.32 130.3,-28.92 129.44,-28.51"/>
<polygon fill="green" stroke="green" stroke-width="0.62" points="130.91,-25.33 120.44,-23.69 127.61,-31.5 130.91,-25.33"/>
</g>
<!-- &#45;4&#45;&gt;3 -->
<g id="edge16" class="edge">
<title>&#45;4&#45;&gt;3</title>
<path fill="none" stroke="green" stroke-width="0.27" d="M251.96,-67.59C235.57,-59.22 205.39,-43.66 180,-29.7 179.19,-29.25 178.36,-28.79 177.53,-28.33"/>
<polygon fill="green" stroke="green" stroke-width="0.27" points="179.07,-25.18 168.65,-23.28 175.61,-31.26 179.07,-25.18"/>
</g>
<!-- &#45;5 -->
<g id="node5" class="node">
<title>&#45;5</title>
<polygon fill="lightgray" stroke="black" points="318,-83.7 294,-83.7 294,-65.7 318,-65.7 318,-83.7"/>
<text text-anchor="middle" x="306" y="-72.5" font-family="Times New Roman,serif" font-size="9.00">&#45;5</text>
</g>
<!-- &#45;5&#45;&gt;0 -->
<g id="edge17" class="edge">
<title>&#45;5&#45;&gt;0</title>
<path fill="none" stroke="green" stroke-width="0.34" d="M293.82,-66.88C278.45,-58.26 251.23,-42.95 228,-29.7 227.2,-29.24 226.38,-28.77 225.55,-28.3"/>
<polygon fill="green" stroke="green" stroke-width="0.34" points="227.1,-25.15 216.69,-23.2 223.62,-31.22 227.1,-25.15"/>
</g>
<!-- &#45;5&#45;&gt;1 -->
<g id="edge18" class="edge">
<title>&#45;5&#45;&gt;1</title>
<path fill="none" stroke="green" stroke-width="0.3" d="M298.49,-65.65C290.82,-57.44 278.67,-44.42 268.71,-33.75"/>
<polygon fill="green" stroke="green" stroke-width="0.3" points="271.01,-31.09 261.63,-26.17 265.9,-35.86 271.01,-31.09"/>
</g>
<!-- &#45;5&#45;&gt;2 -->
<g id="edge19" class="edge">
<title>&#45;5&#45;&gt;2</title>
<path fill="none" stroke="green" stroke-width="0.33" d="M293.66,-68.68C290.84,-67.63 287.83,-66.57 285,-65.7 218.21,-45.22 196.95,-55.43 132,-29.7 131.14,-29.36 130.27,-28.99 129.4,-28.6"/>
<polygon fill="green" stroke="green" stroke-width="0.33" points="130.84,-25.4 120.36,-23.9 127.62,-31.62 130.84,-25.4"/>
</g>
<!-- &#45;5&#45;&gt;3 -->
<g id="edge20" class="edge">
<title>&#45;5&#45;&gt;3</title>
<path fill="none" stroke="red" stroke-width="0.18" d="M293.59,-68.89C290.77,-67.82 287.79,-66.71 285,-65.7 238.61,-48.91 224.91,-50.12 180,-29.7 179.16,-29.32 178.31,-28.91 177.45,-28.49"/>
<polygon fill="red" stroke="red" stroke-width="0.18" points="178.93,-25.31 168.46,-23.65 175.61,-31.47 178.93,-25.31"/>
</g>
<!-- &#45;6 -->
<g id="node6" class="node">
<title>&#45;6</title>
<polygon fill="lightgray" stroke="black" points="360,-83.7 336,-83.7 336,-65.7 360,-65.7 360,-83.7"/>
<text text-anchor="middle" x="348" y="-72.5" font-family="Times New Roman,serif" font-size="9.00">&#45;6</text>
</g>
<!-- &#45;6&#45;&gt;0 -->
<g id="edge21" class="edge">
<title>&#45;6&#45;&gt;0</title>
<path fill="none" stroke="red" stroke-width="0.52" d="M335.57,-68.93C332.76,-67.86 329.78,-66.73 327,-65.7 283.12,-49.36 270.44,-49.47 228,-29.7 227.16,-29.31 226.31,-28.9 225.46,-28.47"/>
<polygon fill="red" stroke="red" stroke-width="0.52" points="226.94,-25.29 216.48,-23.6 223.61,-31.45 226.94,-25.29"/>
</g>
<!-- &#45;6&#45;&gt;1 -->
<g id="edge22" class="edge">
<title>&#45;6&#45;&gt;1</title>
<path fill="none" stroke="red" stroke-width="0.34" d="M335.84,-66.37C320.06,-56.86 292.27,-40.11 273.03,-28.52"/>
<polygon fill="red" stroke="red" stroke-width="0.34" points="274.73,-25.46 264.36,-23.3 271.12,-31.46 274.73,-25.46"/>
</g>
<!-- &#45;6&#45;&gt;2 -->
<g id="edge23" class="edge">
<title>&#45;6&#45;&gt;2</title>
<path fill="none" stroke="red" stroke-width="0.19" d="M335.69,-68.58C332.87,-67.53 329.86,-66.5 327,-65.7 242.14,-41.91 214.7,-60.16 132,-29.7 131.13,-29.38 130.26,-29.03 129.38,-28.65"/>
<polygon fill="red" stroke="red" stroke-width="0.19" points="130.81,-25.45 120.31,-24.02 127.63,-31.69 130.81,-25.45"/>
</g>
<!-- &#45;6&#45;&gt;3 -->
<g id="edge24" class="edge">
<title>&#45;6&#45;&gt;3</title>
<path fill="none" stroke="red" stroke-width="0.76" d="M335.65,-68.7C332.83,-67.64 329.83,-66.58 327,-65.7 262.78,-45.69 242.42,-54.76 180,-29.7 179.14,-29.35 178.27,-28.98 177.41,-28.59"/>
<polygon fill="red" stroke="red" stroke-width="0.76" points="178.85,-25.4 168.37,-23.88 175.62,-31.6 178.85,-25.4"/>
</g>
<!-- &#45;7 -->
<g id="node7" class="node">
<title>&#45;7</title>
<polygon fill="lightgray" stroke="black" points="24,-83.7 0,-83.7 0,-65.7 24,-65.7 24,-83.7"/>
<text text-anchor="middle" x="12" y="-72.5" font-family="Times New Roman,serif" font-size="9.00">&#45;7</text>
</g>
<!-- &#45;7&#45;&gt;0 -->
<g id="edge25" class="edge">
<title>&#45;7&#45;&gt;0</title>
<path fill="none" stroke="green" stroke-width="0.12" d="M24.35,-68.7C27.17,-67.64 30.17,-66.58 33,-65.7 97.22,-45.69 117.58,-54.76 180,-29.7 180.86,-29.35 181.73,-28.98 182.59,-28.59"/>
<polygon fill="green" stroke="green" stroke-width="0.12" points="184.38,-31.6 191.63,-23.88 181.15,-25.4 184.38,-31.6"/>
</g>
<!-- &#45;7&#45;&gt;1 -->
<g id="edge26" class="edge">
<title>&#45;7&#45;&gt;1</title>
<path fill="none" stroke="green" stroke-width="0.42" d="M24.31,-68.58C27.13,-67.53 30.14,-66.5 33,-65.7 117.86,-41.91 145.3,-60.16 228,-29.7 228.87,-29.38 229.74,-29.03 230.62,-28.65"/>
<polygon fill="green" stroke="green" stroke-width="0.42" points="232.37,-31.69 239.69,-24.02 229.19,-25.45 232.37,-31.69"/>
</g>
<!-- &#45;7&#45;&gt;2 -->
<g id="edge27" class="edge">
<title>&#45;7&#45;&gt;2</title>
<path fill="none" stroke="red" stroke-width="0.5" d="M24.16,-66.37C39.94,-56.86 67.73,-40.11 86.97,-28.52"/>
<polygon fill="red" stroke="red" stroke-width="0.5" points="88.88,-31.46 95.64,-23.3 85.27,-25.46 88.88,-31.46"/>
</g>
<!-- &#45;7&#45;&gt;3 -->
<g id="edge28" class="edge">
<title>&#45;7&#45;&gt;3</title>
<path fill="none" stroke="green" stroke-width="0.16" d="M24.43,-68.93C27.24,-67.86 30.22,-66.73 33,-65.7 76.88,-49.36 89.56,-49.47 132,-29.7 132.84,-29.31 133.69,-28.9 134.54,-28.47"/>
<polygon fill="green" stroke="green" stroke-width="0.16" points="136.39,-31.45 143.52,-23.6 133.06,-25.29 136.39,-31.45"/>
</g>
<!-- &#45;8 -->
<g id="node8" class="node">
<title>&#45;8</title>
<polygon fill="lightgray" stroke="black" points="66,-83.7 42,-83.7 42,-65.7 66,-65.7 66,-83.7"/>
<text text-anchor="middle" x="54" y="-72.5" font-family="Times New Roman,serif" font-size="9.00">&#45;8</text>
</g>
<!-- &#45;8&#45;&gt;0 -->
<g id="edge29" class="edge">
<title>&#45;8&#45;&gt;0</title>
<path fill="none" stroke="green" stroke-width="0.62" d="M66.41,-68.89C69.23,-67.82 72.21,-66.71 75,-65.7 121.39,-48.91 135.09,-50.12 180,-29.7 180.84,-29.32 181.69,-28.91 182.55,-28.49"/>
<polygon fill="green" stroke="green" stroke-width="0.62" points="184.39,-31.47 191.54,-23.65 181.07,-25.31 184.39,-31.47"/>
</g>
<!-- &#45;8&#45;&gt;1 -->
<g id="edge30" class="edge">
<title>&#45;8&#45;&gt;1</title>
<path fill="none" stroke="green" stroke-width="0.3" d="M66.34,-68.68C69.16,-67.63 72.17,-66.57 75,-65.7 141.79,-45.22 163.05,-55.43 228,-29.7 228.86,-29.36 229.73,-28.99 230.6,-28.6"/>
<polygon fill="green" stroke="green" stroke-width="0.3" points="232.38,-31.62 239.64,-23.9 229.16,-25.4 232.38,-31.62"/>
</g>
<!-- &#45;8&#45;&gt;2 -->
<g id="edge31" class="edge">
<title>&#45;8&#45;&gt;2</title>
<path fill="none" stroke="green" stroke-width="0.11" d="M61.51,-65.65C69.18,-57.44 81.33,-44.42 91.29,-33.75"/>
<polygon fill="green" stroke="green" stroke-width="0.11" points="94.1,-35.86 98.37,-26.17 88.99,-31.09 94.1,-35.86"/>
</g>
<!-- &#45;8&#45;&gt;3 -->
<g id="edge32" class="edge">
<title>&#45;8&#45;&gt;3</title>
<path fill="none" stroke="red" stroke-width="0.19" d="M66.18,-66.88C81.55,-58.26 108.77,-42.95 132,-29.7 132.8,-29.24 133.62,-28.77 134.45,-28.3"/>
<polygon fill="red" stroke="red" stroke-width="0.19" points="136.38,-31.22 143.31,-23.2 132.9,-25.15 136.38,-31.22"/>
</g>
<!-- &#45;9 -->
<g id="node9" class="node">
<title>&#45;9</title>
<polygon fill="lightgray" stroke="black" points="108,-83.7 84,-83.7 84,-65.7 108,-65.7 108,-83.7"/>
<text text-anchor="middle" x="96" y="-72.5" font-family="Times New Roman,serif" font-size="9.00">&#45;9</text>
</g>
<!-- &#45;9&#45;&gt;0 -->
<g id="edge33" class="edge">
<title>&#45;9&#45;&gt;0</title>
<path fill="none" stroke="red" stroke-width="0.21" d="M108.04,-67.59C124.43,-59.22 154.61,-43.66 180,-29.7 180.81,-29.25 181.64,-28.79 182.47,-28.33"/>
<polygon fill="red" stroke="red" stroke-width="0.21" points="184.39,-31.26 191.35,-23.28 180.93,-25.18 184.39,-31.26"/>
</g>
<!-- &#45;9&#45;&gt;1 -->
<g id="edge34" class="edge">
<title>&#45;9&#45;&gt;1</title>
<path fill="none" stroke="red" stroke-width="0.66" d="M108.4,-68.86C111.22,-67.79 114.2,-66.68 117,-65.7 165.91,-48.46 180.61,-50.78 228,-29.7 228.85,-29.32 229.7,-28.92 230.56,-28.51"/>
<polygon fill="red" stroke="red" stroke-width="0.66" points="232.39,-31.5 239.56,-23.69 229.09,-25.33 232.39,-31.5"/>
</g>
<!-- &#45;9&#45;&gt;2 -->
<g id="edge35" class="edge">
<title>&#45;9&#45;&gt;2</title>
<path fill="none" stroke="red" stroke-width="0.4" d="M97.67,-65.65C99.07,-58.89 101.15,-48.86 103.08,-39.57"/>
<polygon fill="red" stroke="red" stroke-width="0.4" points="106.54,-40.11 105.15,-29.6 99.69,-38.69 106.54,-40.11"/>
</g>
<!-- &#45;9&#45;&gt;3 -->
<g id="edge36" class="edge">
<title>&#45;9&#45;&gt;3</title>
<path fill="none" stroke="green" stroke-width="0.14" d="M104.34,-65.65C113.13,-57.18 127.24,-43.58 138.49,-32.73"/>
<polygon fill="green" stroke="green" stroke-width="0.14" points="140.95,-35.22 145.72,-25.76 136.09,-30.18 140.95,-35.22"/>
</g>
</g>
</svg>
